<?xml version="1.0" encoding="UTF-8"?>
<svg width="24px" height="24px" viewBox="0 0 24 24" version="1.1" xmlns="http://www.w3.org/2000/svg" xmlns:xlink="http://www.w3.org/1999/xlink">
    <title>bx-bx-calendar</title>
    <g id="Page-1" stroke="none" stroke-width="1" fill="none" fill-rule="evenodd">
        <g id="Mobile" transform="translate(-45.000000, -168.000000)" fill-rule="nonzero">
            <g id="conten-reserva" transform="translate(0.000000, 54.000000)">
                <g id="Fecha" transform="translate(33.000000, 100.000000)">
                    <g id="bx-bx-calendar" transform="translate(12.000000, 14.000000)">
                        <g id="Icon" fill="#003580">
                            <path d="M7,11 L9,11 L9,13 L7,13 L7,11 Z M7,15 L9,15 L9,17 L7,17 L7,15 Z M11,11 L13,11 L13,13 L11,13 L11,11 Z M11,15 L13,15 L13,17 L11,17 L11,15 Z M15,11 L17,11 L17,13 L15,13 L15,11 Z M15,15 L17,15 L17,17 L15,17 L15,15 Z" id="Icon-Shape"></path>
                            <path d="M5,22 L19,22 C20.103,22 21,21.103 21,20 L21,6 C21,4.897 20.103,4 19,4 L17,4 L17,2 L15,2 L15,4 L9,4 L9,2 L7,2 L7,4 L5,4 C3.897,4 3,4.897 3,6 L3,20 C3,21.103 3.897,22 5,22 Z M19,8 L19.001,20 L5,20 L5,8 L19,8 Z" id="Icon-Shape"></path>
                        </g>
                        <rect id="ViewBox" x="0" y="0" width="24" height="24"></rect>
                    </g>
                </g>
            </g>
        </g>
    </g>
</svg>