<?xml version="1.0" encoding="UTF-8"?>
<svg width="143px" height="129px" viewBox="0 0 143 129" version="1.1" xmlns="http://www.w3.org/2000/svg" xmlns:xlink="http://www.w3.org/1999/xlink">
    <title>foto</title>
    <g id="Page-1" stroke="none" stroke-width="1" fill="none" fill-rule="evenodd">
        <g id="extra-small" transform="translate(-20.000000, -818.000000)">
            <g id="servicios" transform="translate(0.000000, 751.000000)">
                <g id="card" transform="translate(20.000000, 67.000000)">
                    <g id="foto">
                        <rect id="Rectangle" stroke="#6FBF01" fill="#FFFFFF" x="0.5" y="0.5" width="142" height="128"></rect>
                        <g id="clarity-image-line" transform="translate(53.000000, 47.000000)" fill-rule="nonzero">
                            <g id="Icon" fill="#800000">
                                <path d="M32,4 L4,4 C2.8954305,4 2,4.8954305 2,6 L2,30 C2,31.1045695 2.8954305,32 4,32 L32,32 C33.1045695,32 34,31.1045695 34,30 L34,6 C34,4.8954305 33.1045695,4 32,4 Z M4,30 L4,6 L32,6 L32,30 L4,30 Z" id="Icon-Shape"></path>
                                <path d="M8.92,14 C10.5768542,14 11.92,12.6568542 11.92,11 C11.92,9.34314575 10.5768542,8 8.92,8 C7.26314575,8 5.92,9.34314575 5.92,11 C5.92,12.6568542 7.26314575,14 8.92,14 L8.92,14 Z M8.92,9.39996853 C9.56803422,9.39594971 10.1545144,9.78319871 10.4053179,10.3807457 C10.6561213,10.9782926 10.5217115,11.6681149 10.0649119,12.1277874 C9.60811228,12.58746 8.91914627,12.7261921 8.32003864,12.4791398 C7.720931,12.2320876 7.33,11.6480469 7.33,11 C7.33545724,10.1241377 8.04413767,9.41545724 8.92,9.41 L8.92,9.39996853 Z" id="Icon-Shape"></path>
                                <path d="M22.78,15.37 L17.38,20.77 L13.38,16.77 C12.9899625,16.3822764 12.3600375,16.3822764 11.97,16.77 L5.92,22.9 L5.92,25.73 L12.71,18.94 L16,22.18 L12.25,25.93 L15,25.93 L23.45,17.48 L30,24 L30,21.18 L24.19,15.37 C23.7999625,14.9822764 23.1700375,14.9822764 22.78,15.37 Z" id="Icon-Path"></path>
                            </g>
                            <rect id="ViewBox" x="0" y="0" width="36" height="36"></rect>
                        </g>
                    </g>
                </g>
            </g>
        </g>
    </g>
</svg>