<?xml version="1.0" encoding="UTF-8"?>
<svg width="42px" height="42px" viewBox="0 0 42 42" version="1.1" xmlns="http://www.w3.org/2000/svg" xmlns:xlink="http://www.w3.org/1999/xlink">
    <title>carbon-user-avatar</title>
    <g id="Page-1" stroke="none" stroke-width="1" fill="none" fill-rule="evenodd">
        <g id="Tablet" transform="translate(-694.000000, -25.000000)" fill-rule="nonzero">
            <g id="header">
                <g id="carbon-user-avatar" transform="translate(694.000000, 25.000000)">
                    <g id="Icon" transform="translate(2.000000, 2.000000)" fill="#FFFFFF">
                        <path d="M19,0.625 C8.85176772,0.625 0.625,8.85176772 0.625,19 C0.625,29.1482323 8.85176772,37.375 19,37.375 C29.1482323,37.375 37.375,29.1482323 37.375,19 C37.375,14.126647 35.4390681,9.45289385 31.9930871,6.0069129 C28.5471062,2.56093194 23.873353,0.625 19,0.625 Z M11.125,32.62375 L11.125,29.99875 C11.0050689,27.6925994 12.7584179,25.7171596 15.0625,25.5625 L22.9375,25.5625 C25.2469697,25.7171359 27.0023728,27.7007414 26.875,30.011875 L26.875,32.636875 C22.0078076,35.4721808 15.9921924,35.4721808 11.125,32.636875 L11.125,32.62375 Z M29.5,30.7075 L29.5,29.906875 C29.5744539,26.1846405 26.6574835,23.0868179 22.9375,22.9375 L15.0625,22.9375 C11.3393707,23.0799097 8.41846131,26.1819154 8.5,29.906875 L8.5,30.68125 C3.63267418,26.3277814 1.95666472,19.4222802 4.28678535,13.3219452 C6.61690597,7.22161021 12.4697972,3.19189312 19,3.19189312 C25.5302028,3.19189312 31.383094,7.22161021 33.7132147,13.3219452 C36.0433353,19.4222802 34.3673258,26.3277814 29.5,30.68125 L29.5,30.7075 Z" id="Icon-Shape"></path>
                        <path d="M19,7.1875 C15.3756313,7.1875 12.4375,10.1256313 12.4375,13.75 C12.4375,17.3743687 15.3756313,20.3125 19,20.3125 C22.6243687,20.3125 25.5625,17.3743687 25.5625,13.75 C25.5625,10.1256313 22.6243687,7.1875 19,7.1875 L19,7.1875 Z M19,17.6875 C16.8253788,17.6875 15.0625,15.9246212 15.0625,13.75 C15.0625,11.5753788 16.8253788,9.8125 19,9.8125 C21.1746212,9.8125 22.9375,11.5753788 22.9375,13.75 C22.9375,15.9246212 21.1746212,17.6875 19,17.6875 L19,17.6875 Z" id="Icon-Shape"></path>
                    </g>
                    <rect id="ViewBox" x="0" y="0" width="42" height="42"></rect>
                </g>
            </g>
        </g>
    </g>
</svg>