<?xml version="1.0" encoding="UTF-8"?>
<svg width="32px" height="32px" viewBox="0 0 32 32" version="1.1" xmlns="http://www.w3.org/2000/svg" xmlns:xlink="http://www.w3.org/1999/xlink">
    <title>carbon-user-avatar</title>
    <g id="Page-1" stroke="none" stroke-width="1" fill="none" fill-rule="evenodd">
        <g id="Mobile" transform="translate(-511.000000, -11.000000)" fill-rule="nonzero">
            <g id="header">
                <g id="carbon-user-avatar" transform="translate(511.000000, 11.000000)">
                    <g id="Icon" transform="translate(2.000000, 1.000000)" fill="#FFFFFF">
                        <path d="M14.5,0.476973684 C6.75529642,0.476973684 0.476973684,6.75529642 0.476973684,14.5 C0.476973684,22.2447036 6.75529642,28.5230263 14.5,28.5230263 C22.2447036,28.5230263 28.5230263,22.2447036 28.5230263,14.5 C28.5230263,10.7808622 27.0456046,7.21405057 24.415777,4.584223 C21.7859494,1.95439543 18.2191378,0.476973684 14.5,0.476973684 Z M8.49013158,24.8970724 L8.49013158,22.8937829 C8.39860525,21.1338258 9.73668731,19.6262534 11.4950658,19.5082237 L17.5049342,19.5082237 C19.2674242,19.6262353 20.6070739,21.1400395 20.5098684,22.9037993 L20.5098684,24.9070888 C16.7954321,27.0708748 12.2045679,27.0708748 8.49013158,24.9070888 L8.49013158,24.8970724 Z M22.5131579,23.4346711 L22.5131579,22.8236678 C22.569978,19.9830151 20.343869,17.6188874 17.5049342,17.5049342 L11.4950658,17.5049342 C8.65373025,17.6136153 6.42461521,19.9809354 6.48684211,22.8236678 L6.48684211,23.4146382 C2.77230398,20.0922543 1.49324413,14.8222665 3.27149408,10.1667477 C5.04974403,5.51122885 9.51642415,2.43591843 14.5,2.43591843 C19.4835759,2.43591843 23.950256,5.51122885 25.7285059,10.1667477 C27.5067559,14.8222665 26.227696,20.0922543 22.5131579,23.4146382 L22.5131579,23.4346711 Z" id="Icon-Shape"></path>
                        <path d="M14.5,5.48519737 C11.7340344,5.48519737 9.49177632,7.72745549 9.49177632,10.4934211 C9.49177632,13.2593866 11.7340344,15.5016447 14.5,15.5016447 C17.2659656,15.5016447 19.5082237,13.2593866 19.5082237,10.4934211 C19.5082237,7.72745549 17.2659656,5.48519737 14.5,5.48519737 L14.5,5.48519737 Z M14.5,13.4983553 C12.8404207,13.4983553 11.4950658,12.1530004 11.4950658,10.4934211 C11.4950658,8.83384171 12.8404207,7.48848684 14.5,7.48848684 C16.1595793,7.48848684 17.5049342,8.83384171 17.5049342,10.4934211 C17.5049342,12.1530004 16.1595793,13.4983553 14.5,13.4983553 L14.5,13.4983553 Z" id="Icon-Shape"></path>
                    </g>
                    <rect id="ViewBox" x="0" y="0" width="32" height="32"></rect>
                </g>
            </g>
        </g>
    </g>
</svg>