<?xml version="1.0" encoding="UTF-8"?>
<svg width="32px" height="32px" viewBox="0 0 32 32" version="1.1" xmlns="http://www.w3.org/2000/svg" xmlns:xlink="http://www.w3.org/1999/xlink">
    <title>brandico-vkontakte-rect</title>
    <g id="Page-1" stroke="none" stroke-width="1" fill="none" fill-rule="evenodd">
        <g id="Mobile" transform="translate(-32.000000, -11.000000)" fill-rule="nonzero">
            <g id="header">
                <g id="Logo" transform="translate(32.000000, 11.000000)">
                    <g id="brandico-vkontakte-rect">
                        <g id="Icon" fill="#FFFFFF">
                            <path d="M6.272992,0.002016 C2.824064,0.002016 0.001984,2.824096 0.001984,6.273024 L0.001984,25.73504 C0.001984,29.183968 2.824064,32.006048 6.272992,32.006048 L25.735008,32.006048 C29.183936,32.006048 32.006016,29.183968 32.006016,25.73504 L32.006016,6.273024 C32.006016,2.824096 29.183936,0.002016 25.735008,0.002016 L6.272992,0.002016 Z M9.863008,7.223008 L16.176,7.223008 C17.487104,7.223008 18.483008,7.270976 19.159008,7.374016 C19.835008,7.471904 20.469984,7.681728 21.06,8.001024 C21.698496,8.344992 22.178112,8.808192 22.494016,9.382016 C22.809856,9.959232 22.970016,10.622688 22.970016,11.377024 C22.970016,12.248832 22.75248,13.023776 22.314016,13.704032 C21.879776,14.384288 21.277248,14.884512 20.511008,15.208032 L20.511008,15.301024 C21.613536,15.535168 22.497792,16.006176 23.161024,16.72304 C23.825248,17.440736 24.157024,18.406816 24.157024,19.620032 C24.157024,20.508032 23.989376,21.291296 23.653024,21.96304 C23.3168,22.634784 22.86656,23.18832 22.297024,23.63104 C21.62528,24.158912 20.887968,24.531424 20.080032,24.757056 C19.277184,24.981824 18.257344,25.094048 17.016032,25.094048 L9.863008,25.094048 L9.863008,7.223008 L9.863008,7.223008 Z M14.327968,10.499008 L14.327968,14.281024 L14.892992,14.281024 C15.659232,14.281024 16.20064,14.273152 16.508,14.257024 C16.81536,14.240896 17.135232,14.15856 17.463008,14.007008 C17.81888,13.839296 18.069504,13.606432 18.204,13.311008 C18.33936,13.01216 18.408992,12.667072 18.408992,12.278016 C18.408992,11.987712 18.335136,11.692096 18.186976,11.389024 C18.03968,11.08592 17.810848,10.864384 17.494976,10.729024 C17.200384,10.59792 16.852064,10.5288 16.445984,10.516032 C16.040736,10.503232 15.43856,10.499008 14.639968,10.499008 L14.327968,10.499008 L14.327968,10.499008 Z M14.328,17.342016 L14.328,21.816032 L14.570016,21.816032 C15.738112,21.816032 16.544896,21.807232 16.991008,21.79104 C17.43712,21.774912 17.896704,21.66896 18.359008,21.468032 C18.769376,21.291808 19.064,21.033568 19.253024,20.693024 C19.441184,20.353312 19.53504,19.967968 19.53504,19.538016 C19.53504,18.984608 19.425664,18.554624 19.200032,18.243008 C18.975264,17.928 18.639008,17.69408 18.192032,17.534016 C17.92128,17.427584 17.544096,17.36992 17.069024,17.358016 C16.593952,17.346112 15.955456,17.342016 15.156032,17.342016 L14.328,17.342016 L14.328,17.342016 Z" id="Icon-Shape"></path>
                        </g>
                        <rect id="ViewBox" x="0" y="0" width="32" height="32"></rect>
                    </g>
                </g>
            </g>
        </g>
    </g>
</svg>