<?xml version="1.0" encoding="UTF-8"?>
<svg width="181px" height="42px" viewBox="0 0 181 42" version="1.1" xmlns="http://www.w3.org/2000/svg" xmlns:xlink="http://www.w3.org/1999/xlink">
    <title>Logo</title>
    <g id="Page-1" stroke="none" stroke-width="1" fill="none" fill-rule="evenodd">
        <g id="Tablet" transform="translate(-30.000000, -25.000000)">
            <g id="header">
                <g id="Logo" transform="translate(30.000000, 25.000000)">
                    <text id="Hotel-BuenaVentura" font-family="Georgia-Bold, Georgia" font-size="18" font-weight="bold" fill="#FDFEFF">
                        <tspan x="45" y="17">Hotel </tspan>
                        <tspan x="45" y="38">BuenaVentura</tspan>
                    </text>
                    <g id="brandico-vkontakte-rect" fill-rule="nonzero">
                        <g id="Icon" fill="#FFFFFF">
                            <path d="M7.449178,0.002394 C3.353576,0.002394 0.002356,3.353614 0.002356,7.449216 L0.002356,30.56036 C0.002356,34.655962 3.353576,38.007182 7.449178,38.007182 L30.560322,38.007182 C34.655924,38.007182 38.007144,34.655962 38.007144,30.56036 L38.007144,7.449216 C38.007144,3.353614 34.655924,0.002394 30.560322,0.002394 L7.449178,0.002394 Z M11.712322,8.577322 L19.209,8.577322 C20.765936,8.577322 21.948572,8.634284 22.751322,8.756644 C23.554072,8.872886 24.308106,9.122052 25.00875,9.501216 C25.766964,9.909678 26.336508,10.459728 26.711644,11.141144 C27.086704,11.826588 27.276894,12.614442 27.276894,13.510216 C27.276894,14.545488 27.01857,15.465734 26.497894,16.273538 C25.982234,17.081342 25.266732,17.675358 24.356822,18.059538 L24.356822,18.169966 C25.666074,18.448012 26.716128,19.007334 27.503716,19.85861 C28.292482,20.710874 28.686466,21.858094 28.686466,23.298788 C28.686466,24.353288 28.487384,25.283414 28.087966,26.08111 C27.6887,26.878806 27.15404,27.53613 26.477716,28.06186 C25.68002,28.688708 24.804462,29.131066 23.845038,29.399004 C22.891656,29.665916 21.680596,29.799182 20.206538,29.799182 L11.712322,29.799182 L11.712322,8.577322 L11.712322,8.577322 Z M17.014462,12.467572 L17.014462,16.958716 L17.685428,16.958716 C18.595338,16.958716 19.23826,16.949368 19.60325,16.930216 C19.96824,16.911064 20.348088,16.81329 20.737322,16.633322 C21.15992,16.434164 21.457536,16.157638 21.61725,15.806822 C21.77799,15.45194 21.860678,15.042148 21.860678,14.580144 C21.860678,14.235408 21.772974,13.884364 21.597034,13.524466 C21.42212,13.16453 21.150382,12.901456 20.775284,12.740716 C20.425456,12.58503 20.011826,12.50295 19.529606,12.487788 C19.048374,12.472588 18.33329,12.467572 17.384962,12.467572 L17.014462,12.467572 L17.014462,12.467572 Z M17.0145,20.593644 L17.0145,25.906538 L17.301894,25.906538 C18.689008,25.906538 19.647064,25.896088 20.176822,25.87686 C20.70658,25.857708 21.252336,25.73189 21.801322,25.493288 C22.288634,25.284022 22.6385,24.977362 22.862966,24.572966 C23.086406,24.169558 23.19786,23.711962 23.19786,23.201394 C23.19786,22.544222 23.067976,22.033616 22.800038,21.663572 C22.533126,21.2895 22.133822,21.01172 21.603038,20.821644 C21.28152,20.695256 20.833614,20.62678 20.269466,20.612644 C19.705318,20.598508 18.947104,20.593644 17.997788,20.593644 L17.0145,20.593644 L17.0145,20.593644 Z" id="Icon-Shape"></path>
                        </g>
                        <rect id="ViewBox" x="0" y="0" width="38" height="38"></rect>
                    </g>
                </g>
            </g>
        </g>
    </g>
</svg>