<?xml version="1.0" encoding="UTF-8"?>
<svg width="138px" height="32px" viewBox="0 0 138 32" version="1.1" xmlns="http://www.w3.org/2000/svg" xmlns:xlink="http://www.w3.org/1999/xlink">
    <title>Logo</title>
    <g id="Page-1" stroke="none" stroke-width="1" fill="none" fill-rule="evenodd">
        <g id="Mobile" transform="translate(-33.000000, -1566.000000)">
            <g id="footer" transform="translate(0.000000, 1547.000000)">
                <g id="Logo" transform="translate(33.000000, 19.000000)">
                    <text id="Hotel-BuenaVentura" font-family="Georgia-Bold, Georgia" font-size="14" font-weight="bold" fill="#FDFEFF">
                        <tspan x="32" y="13">Hotel </tspan>
                        <tspan x="32" y="29">BuenaVentura</tspan>
                    </text>
                    <g id="brandico-vkontakte-rect" transform="translate(0.000000, 4.000000)" fill-rule="nonzero">
                        <g id="Icon" fill="#FFFFFF">
                            <path d="M4.704744,0.001512 C2.118048,0.001512 0.001488,2.118072 0.001488,4.704768 L0.001488,19.30128 C0.001488,21.887976 2.118048,24.004536 4.704744,24.004536 L19.301256,24.004536 C21.887952,24.004536 24.004512,21.887976 24.004512,19.30128 L24.004512,4.704768 C24.004512,2.118072 21.887952,0.001512 19.301256,0.001512 L4.704744,0.001512 Z M7.397256,5.417256 L12.132,5.417256 C13.115328,5.417256 13.862256,5.453232 14.369256,5.530512 C14.876256,5.603928 15.352488,5.761296 15.795,6.000768 C16.273872,6.258744 16.633584,6.606144 16.870512,7.036512 C17.107392,7.469424 17.227512,7.967016 17.227512,8.532768 C17.227512,9.186624 17.06436,9.767832 16.735512,10.278024 C16.409832,10.788216 15.957936,11.163384 15.383256,11.406024 L15.383256,11.475768 C16.210152,11.651376 16.873344,12.004632 17.370768,12.54228 C17.868936,13.080552 18.117768,13.805112 18.117768,14.715024 C18.117768,15.381024 17.992032,15.968472 17.739768,16.47228 C17.4876,16.976088 17.14992,17.39124 16.722768,17.72328 C16.21896,18.119184 15.665976,18.398568 15.060024,18.567792 C14.457888,18.736368 13.693008,18.820536 12.762024,18.820536 L7.397256,18.820536 L7.397256,5.417256 L7.397256,5.417256 Z M10.745976,7.874256 L10.745976,10.710768 L11.169744,10.710768 C11.744424,10.710768 12.15048,10.704864 12.381,10.692768 C12.61152,10.680672 12.851424,10.61892 13.097256,10.505256 C13.36416,10.379472 13.552128,10.204824 13.653,9.983256 C13.75452,9.75912 13.806744,9.500304 13.806744,9.208512 C13.806744,8.990784 13.751352,8.769072 13.640232,8.541768 C13.52976,8.31444 13.358136,8.148288 13.121232,8.046768 C12.900288,7.94844 12.639048,7.8966 12.334488,7.887024 C12.030552,7.877424 11.57892,7.874256 10.979976,7.874256 L10.745976,7.874256 L10.745976,7.874256 Z M10.746,13.006512 L10.746,16.362024 L10.927512,16.362024 C11.803584,16.362024 12.408672,16.355424 12.743256,16.34328 C13.07784,16.331184 13.422528,16.25172 13.769256,16.101024 C14.077032,15.968856 14.298,15.775176 14.439768,15.519768 C14.580888,15.264984 14.65128,14.975976 14.65128,14.653512 C14.65128,14.238456 14.569248,13.915968 14.400024,13.682256 C14.231448,13.446 13.979256,13.27056 13.644024,13.150512 C13.44096,13.070688 13.158072,13.02744 12.801768,13.018512 C12.445464,13.009584 11.966592,13.006512 11.367024,13.006512 L10.746,13.006512 L10.746,13.006512 Z" id="Icon-Shape"></path>
                        </g>
                        <rect id="ViewBox" x="0" y="0" width="24" height="24"></rect>
                    </g>
                </g>
            </g>
        </g>
    </g>
</svg>