<?xml version="1.0" encoding="UTF-8"?>
<svg width="32px" height="32px" viewBox="0 0 32 32" version="1.1" xmlns="http://www.w3.org/2000/svg" xmlns:xlink="http://www.w3.org/1999/xlink">
    <title>bx-bx-search</title>
    <g id="Page-1" stroke="none" stroke-width="1" fill="none" fill-rule="evenodd">
        <g id="Mobile" transform="translate(-475.000000, -227.000000)" fill-rule="nonzero">
            <g id="conten-reserva" transform="translate(0.000000, 54.000000)">
                <g id="boton" transform="translate(438.000000, 163.000000)">
                    <g id="bx-bx-search" transform="translate(37.000000, 10.000000)">
                        <g id="Icon" fill="#FFFFFF">
                            <path d="M13.3333333,24 C15.6999688,23.9995138 17.9984056,23.2072408 19.8626667,21.7493333 L25.724,27.6106667 L27.6093333,25.7253333 L21.748,19.864 C23.2066665,17.9995526 23.9994308,15.7005831 24,13.3333333 C24,7.452 19.2146667,2.66666667 13.3333333,2.66666667 C7.452,2.66666667 2.66666667,7.452 2.66666667,13.3333333 C2.66666667,19.2146667 7.452,24 13.3333333,24 Z M13.3333333,5.33333333 C17.7453333,5.33333333 21.3333333,8.92133333 21.3333333,13.3333333 C21.3333333,17.7453333 17.7453333,21.3333333 13.3333333,21.3333333 C8.92133333,21.3333333 5.33333333,17.7453333 5.33333333,13.3333333 C5.33333333,8.92133333 8.92133333,5.33333333 13.3333333,5.33333333 Z" id="Icon-Shape"></path>
                        </g>
                        <rect id="ViewBox" x="0" y="0" width="32" height="32"></rect>
                    </g>
                </g>
            </g>
        </g>
    </g>
</svg>