<?xml version="1.0" encoding="UTF-8"?>
<svg width="24px" height="24px" viewBox="0 0 24 24" version="1.1" xmlns="http://www.w3.org/2000/svg" xmlns:xlink="http://www.w3.org/1999/xlink">
    <title>carbon-user-filled</title>
    <g id="Page-1" stroke="none" stroke-width="1" fill="none" fill-rule="evenodd">
        <g id="Mobile" transform="translate(-53.000000, -231.000000)" fill-rule="nonzero">
            <g id="conten-reserva" transform="translate(0.000000, 54.000000)">
                <g id="cantidad" transform="translate(33.000000, 163.000000)">
                    <g id="carbon-user-filled" transform="translate(20.000000, 14.000000)">
                        <g id="Icon" fill="#003580">
                            <path d="M4.5,22.5 L19.5,22.5 L19.5,18.75 C19.4966935,15.8518758 17.1481242,13.5033065 14.25,13.5 L9.75,13.5 C6.85187576,13.5033065 4.50330648,15.8518758 4.5,18.75 L4.5,22.5 Z" id="Icon-Path"></path>
                            <path d="M6.75,6.75 C6.75,9.64949494 9.10050506,12 12,12 C14.8994949,12 17.25,9.64949494 17.25,6.75 C17.25,3.85050506 14.8994949,1.5 12,1.5 C9.10050506,1.5 6.75,3.85050506 6.75,6.75 Z" id="Icon-Path"></path>
                        </g>
                        <rect id="ViewBox" x="0" y="0" width="24" height="24"></rect>
                    </g>
                </g>
            </g>
        </g>
    </g>
</svg>